<svg width="350" height="639" viewBox="0 0 350 639" fill="none" xmlns="http://www.w3.org/2000/svg">
<g clip-path="url(#clip0)">
<g clip-path="url(#clip1)">
<path opacity="0.12" d="M3.52954 283.328C10.0778 305.303 23.1048 324.488 34.9665 343.839C41.7499 354.904 48.1806 366.189 53.1412 378.216C58.4386 391.115 62.9342 404.489 70.6745 416.201C72.4813 419.799 74.2934 423.412 76.298 426.892C75.0846 429.271 76.2071 432.911 79.6977 432.906H80.8043C81.0822 433.136 81.3709 433.355 81.6702 433.558H92.0673C92.2757 433.35 92.4842 433.125 92.682 432.885L219.371 432.612L254.56 432.537L271.623 432.5C276.605 432.5 281.421 432.088 284.923 428.095C288.354 424.188 291.091 419.51 294.042 415.234C296.993 410.957 300.008 406.563 302.953 402.233C309.02 393.274 314.975 384.23 320.657 375.014C326.34 365.798 331.733 356.471 336.694 346.881C339.103 342.248 341.403 337.551 343.595 332.79C345.781 328.043 348.406 323.099 349.534 317.978C350.753 312.456 349.448 307.591 347.166 302.556C344.883 297.52 342.355 292.479 339.981 287.449L324.971 255.911C320.036 245.555 315.105 235.2 310.18 224.848C307.686 219.627 305.191 214.401 302.696 209.17C300.446 204.423 298.286 199.623 297.249 194.443C296.18 189.017 296.469 183.372 296.8 177.872C297.139 172.298 297.558 166.728 298.057 161.162C299.072 149.672 300.396 138.215 302.028 126.79C302.83 121.245 303.701 115.721 304.642 110.219C305.546 104.954 307.042 99.4263 305.786 94.0914C304.53 88.7566 300.232 84.7101 296.832 80.7384L285.741 67.7434L239.999 14.1493L228.907 1.14904C227.464 -0.540145 224.85 -0.198034 223.316 1.08489C222.898 1.182 222.5 1.35016 222.14 1.58202C195.106 18.9481 166.207 33.2228 135.986 44.1376C135.367 44.362 134.808 44.7281 134.356 45.2067C120.917 46.0193 107.471 46.691 94.0184 47.222C79.6532 47.7815 65.2862 48.1806 50.9175 48.4194C49.3138 48.4194 47.3253 49.6328 47.0473 51.3648C42.6141 78.9485 40.204 106.819 39.8363 134.755C39.7507 141.597 39.7614 148.455 39.0825 155.276C38.4197 161.931 36.7626 168.383 34.7153 174.739C30.6794 187.344 26.1357 199.842 21.4423 212.211C16.749 224.581 11.5425 236.913 5.36839 248.7C2.40698 254.345 -0.474251 259.631 0.0656461 266.222C0.632078 272.028 1.79279 277.76 3.52954 283.328Z" fill="#FDCA30"/>
</g>
<path fill-rule="evenodd" clip-rule="evenodd" d="M58.2472 9.8763C60.146 10.7959 62.0057 11.7913 63.8731 12.7719C67.8308 14.8474 71.8593 16.7952 75.7675 18.9644C77.5364 19.9467 79.1072 21.1758 80.7965 22.278C82.5898 23.449 84.5254 24.4061 86.4179 25.404C90.3976 27.5011 94.2115 29.8316 97.9863 32.2727C99.1423 33.0201 100.293 33.7743 101.443 34.5308C102.326 35.1119 103.608 35.6653 104.316 36.424C105.439 37.6274 104.817 39.6069 104.666 41.1002C103.849 49.1581 99.8744 57.3434 95.2689 63.931C92.7558 67.5257 89.6784 70.5806 86.6527 73.7367C83.5515 76.9707 80.5541 80.1878 76.9551 82.8701C73.2959 85.5966 69.947 88.6363 66.142 91.1825C64.7228 92.1322 62.4322 94.1957 60.6803 94.323C58.9048 94.4502 57.1583 92.7845 55.8047 91.8816C48.4003 86.945 40.8143 82.153 33.6327 76.9023C26.1619 71.4385 18.6645 66.0169 11.1431 60.62C13.3807 59.4208 15.6538 58.2712 17.8529 57.0042C19.9241 55.8107 21.7875 54.196 23.6991 52.7659C27.9004 49.6237 32.0032 46.3963 35.536 42.4983C41.9513 35.4186 47.5554 27.4784 51.0093 18.5312C51.8179 16.4344 52.3547 14.2489 52.8884 12.0718C53.0795 11.2931 53.2324 9.04295 54.0314 8.5316C55.0797 7.86261 57.339 9.43684 58.2472 9.8763ZM118.48 90.134C119.551 91.7415 119.932 93.0114 118.34 94.3477C116.312 96.0511 114.132 97.6066 112.053 99.2509C108.077 102.397 104.099 105.545 99.9341 108.441C92.6372 113.513 84.9317 118.006 76.4854 120.849C72.4027 122.224 68.224 123.349 64.0312 124.328C59.963 125.279 55.8046 125.453 51.6722 125.938C49.6387 126.176 47.8016 126.118 45.7709 125.878C44.8089 125.765 44.3247 125.745 43.6736 125.063C43.0147 124.372 42.5061 123.266 41.9983 122.458C39.6076 118.659 37.3172 114.788 34.837 111.046C32.3778 107.337 29.5828 103.85 27.121 100.15C25.9645 98.4109 25.3493 96.4243 24.4022 94.5753C23.4482 92.7129 22.3302 90.9434 21.2899 89.1301C20.7534 88.1956 20.5646 88.367 21.2561 87.6575C21.6238 87.2788 22.2545 87.0005 22.7007 86.7075C23.56 86.1426 24.4195 85.5765 25.2831 85.0187C26.0558 84.5205 27.2438 83.4174 28.1624 83.2017C28.9807 83.0107 29.5071 83.5004 30.1065 83.9745C33.4725 86.6321 36.974 89.0162 40.6262 91.2681C44.3516 93.5665 48.033 95.9575 51.8226 98.1514C53.4558 99.0974 55.1683 100.259 57.0935 100.47C58.672 100.643 60.2493 100.25 61.7362 99.747C69.917 96.9795 77.075 90.7022 83.4538 85.065C90.0108 79.2703 96.4834 72.974 101.203 65.5607C107.127 73.6229 112.933 81.8063 118.48 90.134ZM46.2857 4.60465C47.0887 7.46279 46.1622 10.3162 45.2284 13.0113C44.0624 16.3689 42.803 19.6541 41.1633 22.8178C37.717 29.464 33.0524 35.6072 27.8475 40.9813C22.8802 46.1133 16.9028 51.2397 10.3966 54.3151C8.65657 55.1374 6.86739 55.2614 5.10746 55.8886C3.92444 56.3099 2.66387 57.5481 1.89294 58.5176C0.787798 59.9086 2.21241 60.8605 3.23078 61.7775C4.7171 63.1157 6.20056 64.4571 7.6921 65.7885C13.3186 70.8071 19.8333 75.0831 24.7226 80.8091C22.7286 81.4804 21.0512 82.269 18.9022 82.2463C16.8919 82.2248 14.8175 81.7534 12.8456 82.34C11.2031 82.8288 9.31693 84.0766 8.34615 85.5202C7.3273 87.037 8.20334 88.2713 8.98775 89.665C11.193 93.5846 13.1995 97.5613 15.666 101.334C16.1969 102.145 16.6802 102.987 17.3942 103.648C17.9692 104.18 18.4741 104.478 18.8181 105.19C19.2748 106.132 19.4107 107.158 19.9605 108.094C20.4787 108.976 21.1121 109.782 21.7466 110.581C24.0923 113.534 25.9565 116.738 28.4877 119.56C29.2256 120.382 30.9526 121.675 31.0529 122.877C31.1586 124.147 29.5708 124.258 29.1455 125.241C28.5873 126.535 30.5382 128.138 31.2921 129.051C32.3669 130.358 33.4949 131.387 35.0216 132.144C38.1077 133.674 41.4412 134.656 44.8892 134.915C48.4971 135.188 52.0936 134.665 55.6578 134.136C59.375 133.585 63.0313 133.083 66.661 132.065C70.3693 131.025 74.153 129.896 77.6557 128.277C81.1533 126.66 84.5313 124.782 88.0122 123.124C91.6432 121.395 94.9655 119.119 98.3132 116.908C101.784 114.614 105.127 112.27 108.322 109.601C111.461 106.98 114.422 104.247 117.408 101.462C118.171 100.749 119.074 100.164 119.804 99.4239C120.294 98.9259 120.609 98.2492 121.151 97.8032C122.226 96.9149 123.701 97.4097 124.855 96.5208C127.535 94.456 126.428 90.8222 125.503 88.197C124.3 84.7836 122.524 81.2954 120.171 78.5332C115.105 72.5887 110.332 66.2151 103.656 61.9517C106.698 54.9669 110.344 47.8618 110.357 40.0774C110.359 39.1989 110.192 38.3706 110.541 37.546C110.842 36.84 111.274 36.309 111.444 35.5354C111.863 33.6324 111.07 32.2475 109.696 31.0242C106.707 28.3611 103.757 25.8859 100.358 23.7755C98.85 22.8382 97.5638 21.6127 96.0629 20.6606C94.6207 19.745 93.0925 18.9797 91.5768 18.1949C88.2582 16.4783 85.0741 14.5218 81.7468 12.8157C75.0636 9.38979 68.2955 6.12132 61.1792 3.67653C57.7411 2.49579 53.987 1.00406 50.3688 0.520307C48.7757 0.307893 47.2995 0.765485 46.1215 1.86123C44.8964 3.00075 45.9203 3.30097 46.2857 4.60465Z" fill="#1A1A1A"/>
<path fill-rule="evenodd" clip-rule="evenodd" d="M63.1124 43.8154C62.2181 42.9148 61.5636 41.5601 60.8767 40.4906C60.1413 39.3455 59.46 38.2862 59.0751 36.9726C58.8899 36.3404 58.7548 35.6894 58.5516 35.0634C58.3597 34.4717 58.1147 33.9564 58.1156 33.3202C58.1165 32.6561 58.2472 30.6444 59.2669 30.775C59.8598 30.8509 59.7979 31.4836 59.8417 31.9383C59.892 32.459 59.9986 32.973 60.1961 33.4586C60.6629 34.6068 61.6175 35.5709 62.2619 36.6299C62.8859 37.6565 63.5995 38.5781 64.4707 39.4072C65.309 40.205 66.2328 40.9492 67.1907 41.598C68.0323 42.1679 69.0222 42.5673 69.6703 43.3841C70.0579 43.8732 70.1287 44.0236 70.7695 44.111C71.2866 44.1819 71.7788 44.3249 72.2321 44.5899C72.7457 44.8901 73.1254 45.2701 73.7107 45.4455C74.2202 45.5984 74.7515 45.6692 75.2644 45.809C76.4503 46.1314 77.5165 46.7589 78.7254 47.0561C79.3507 47.2102 79.9833 47.333 80.6139 47.4627C81.1183 47.5665 81.7085 47.6159 82.1447 47.9123C82.8769 48.4105 83.3855 49.802 82.854 50.5969C82.2818 51.4528 80.7297 51.0867 79.8842 51.0584C79.8781 51.1139 79.8727 51.1693 79.8663 51.2248C78.4327 51.0663 76.9494 51.0288 75.5412 50.7075C74.7969 50.5375 74.1173 50.2608 73.4234 49.9498C72.8356 49.6867 72.252 49.6267 71.6354 49.4801C71.0839 49.3494 70.6324 49.1164 70.2566 48.6834C69.7762 48.1282 69.6106 48.3209 68.9376 48.2346C67.8564 48.0955 66.8358 46.9717 66.0417 46.3084C65.0742 45.4995 64.0001 44.7098 63.1124 43.8154Z" fill="#1A1A1A"/>
<path fill-rule="evenodd" clip-rule="evenodd" d="M58.2758 50.9185C58.6155 50.8023 59.2268 51.1352 59.5 51.2826C60.5886 51.8697 61.7087 52.4022 62.8075 52.971C63.8194 53.4948 64.8207 54.0388 65.8196 54.5869C66.6514 55.043 67.2235 55.6439 67.0353 56.6616C66.9492 57.126 66.7874 57.6754 66.2386 57.4623C65.836 57.3057 65.4867 57.15 65.0492 57.0374C63.9483 56.7536 62.8383 56.4752 61.7931 56.018C59.9816 55.2264 58.2335 53.9069 57.8195 51.8674C57.9221 51.5643 57.9132 51.0425 58.2758 50.9185Z" fill="#1A1A1A"/>
<path d="M201.177 199.704C186.21 206.291 170.245 214.381 154.903 228.81C154.679 229.022 154.53 229.3 154.478 229.603C154.426 229.907 154.473 230.219 154.613 230.493C156.124 233.478 159.062 239.4 161.899 245.122C164.176 249.709 166.324 254.043 167.441 256.258C167.301 255.979 167.257 255.663 167.314 255.356C167.372 255.05 167.528 254.77 167.759 254.561C168.206 254.157 178.715 244.666 184.494 240.27C184.732 240.089 210.854 222.346 216.124 223.359C216.423 223.409 216.708 223.522 216.96 223.691C217.211 223.86 217.424 224.08 217.584 224.338C212.322 215.307 203.054 200.407 202.959 200.255C202.778 199.964 202.498 199.749 202.171 199.648C201.843 199.546 201.49 199.566 201.177 199.704Z" fill="#F79400"/>
<path d="M349.481 504.034C349.248 504.134 349.006 504.248 348.801 504.362C346.263 505.655 343.535 506.596 341.106 508.093C338.839 509.491 336.881 511.335 334.928 513.165L330.237 517.613C329.286 518.516 327.566 520.061 327.052 521.625C331.598 525.321 336.344 528.764 341.268 531.938C342.059 532.442 342.966 532.733 343.902 532.782C344.838 532.831 345.771 532.637 346.61 532.219C347.445 531.806 348.158 531.184 348.68 530.414C349.202 529.643 349.516 528.75 349.59 527.823C350.17 519.902 350.134 511.949 349.481 504.034Z" fill="#F79400"/>
<path d="M201.178 199.704C201.489 199.568 201.839 199.548 202.164 199.647C202.489 199.747 202.768 199.959 202.95 200.246C197.722 192.204 194.842 188.658 193.758 187.323C190.141 182.864 184.699 180.478 179.576 181.096C175.141 181.629 169.642 182.722 160.441 189.019C151.458 195.165 148.592 198.739 147.665 204.956C147.061 209.024 147.613 213.739 149.224 218.23C150.782 222.428 152.585 226.53 154.623 230.517C154.484 230.242 154.436 229.93 154.489 229.627C154.541 229.324 154.69 229.046 154.913 228.834C170.246 214.381 186.225 206.291 201.178 199.704Z" fill="#FDCA30"/>
<path d="M330.237 517.613L334.947 513.165C336.881 511.335 338.84 509.491 341.126 508.093C343.554 506.596 346.283 505.655 348.821 504.362C349.044 504.248 349.267 504.134 349.5 504.034C348.379 488.93 345.589 472.908 342.552 457.347C342.552 457.347 342.528 457.243 342.514 457.19C342.457 457.029 341.188 453.212 340.342 451.454C309.182 386.976 257.57 291.491 217.594 224.338C217.435 224.08 217.222 223.859 216.971 223.69C216.719 223.521 216.434 223.408 216.135 223.359C210.864 222.346 184.742 240.089 184.505 240.27C178.725 244.666 168.217 254.157 167.77 254.561C167.538 254.771 167.382 255.052 167.325 255.359C167.269 255.667 167.315 255.984 167.456 256.263C167.456 256.263 184.006 289.058 189.947 300.84C195.085 311.016 204.048 326.268 211.957 339.728C216.853 348.055 221.463 355.926 224.828 361.948C232.951 376.567 243.112 395.275 253.863 415.066C267.827 440.802 283.659 469.952 297.3 494.239C297.301 494.25 297.301 494.261 297.3 494.272L297.395 494.405C297.423 494.438 297.447 494.476 297.475 494.505C297.486 494.516 297.496 494.529 297.504 494.543C305.555 502.704 316.207 512.927 327.034 521.634C327.566 520.061 329.286 518.516 330.237 517.613Z" fill="#FDCA30"/>
<path d="M187.332 240.559C222.228 307.575 278.867 412.504 316.444 478.093" stroke="#F79400" stroke-width="6" stroke-linecap="round" stroke-linejoin="round"/>
<path d="M298.107 493.526C313.421 483.312 328.943 472.917 340.925 458.939" stroke="#F79400" stroke-width="6" stroke-linecap="round" stroke-linejoin="round"/>
<path d="M136.367 244.405C136.163 247.18 137.104 249.633 138.497 253.012C139.889 256.391 143.207 259.077 149.461 259.024C157.213 258.958 160.312 251.957 161.61 245.336L165.084 245.531C165.902 245.574 166.538 245.022 166.429 244.271C165.574 238.481 163.72 232.883 160.949 227.727C160.337 226.078 159.445 224.547 158.311 223.202C152.955 216.961 144.875 219.794 141.03 225.997C139.832 227.982 138.868 230.098 138.154 232.304C136.567 232.033 134.913 231.596 133.287 231.957C131.743 232.354 130.393 233.292 129.483 234.6C128.572 235.909 128.161 237.5 128.325 239.086C128.782 243.135 132.589 244.167 136.367 244.405Z" fill="#2DBE60"/>
<path d="M248.326 300.07C244.807 299.794 241.272 299.776 237.751 300.018C237.565 299.443 237.37 298.877 237.171 298.307C241.762 297.294 246.838 297.679 251.377 297.931C252.941 298.022 254.576 296.981 254.704 295.303C255.179 288.696 245.816 289.086 241.334 288.948C238.306 288.847 235.274 288.936 232.256 289.215L231.377 289.295C231.243 289.286 231.108 289.286 230.973 289.295C229.985 289.352 229.001 289.424 228.022 289.509C229.058 287.651 230.179 285.436 230.707 284.424C231.539 282.827 231.691 281.334 230.707 280.27C229.889 278.868 228.639 278.549 226.824 279.143C224.034 280.056 221.491 283.164 219.528 285.255C217.681 287.231 215.96 289.322 214.376 291.515C205.768 293.339 197.371 296.047 189.319 299.595L173.768 268.773C172.48 268.644 171.173 268.568 169.809 268.549L166.42 268.502C159.186 267.95 150.027 267.779 145.208 267.836C139.438 267.903 129.357 268.159 123.596 268.63L123.078 268.682C119.073 268.92 115.076 269.278 111.087 269.756C107.513 270.189 103.549 270.602 100.189 272.109L100.084 272.152C99.225 272.477 98.4229 272.935 97.7076 273.511C96.8455 274.129 96.0716 274.861 95.4072 275.688C91.7427 280.27 91.1581 286.672 91.9899 292.323C92.2536 296.176 93.0534 299.974 94.3663 303.606C93.2113 309.909 91.5859 319.015 89.9699 328.492C87.4461 340.983 78.5012 392.894 77.6742 397.29C76.8472 401.686 73.6628 405.275 70.4831 408.412C68.3491 410.503 24.8794 439.5 1.64267 454.381C1.07465 454.723 0.646699 455.255 0.435438 455.883C0.154516 456.356 0.00426547 456.894 8.94878e-05 457.444C-0.0040865 457.993 0.137962 458.534 0.411674 459.011C6.91359 471.877 10.4687 482.01 17.7121 493.84C18.1399 494.543 20.2929 497.504 20.7634 497.827C21.9089 498.616 23.0971 498.592 24.3661 498.127C25.6351 497.661 26.1389 496.088 26.0249 494.861C25.9368 493.833 25.9161 492.799 25.9631 491.767C40.7397 480.912 59.851 469.975 70.255 463.07C91.2627 449.096 105.341 439.457 112.456 429.552C115.992 424.624 119.523 412.727 121.681 395.332C122.931 385.251 124.884 367.2 126.41 352.708L126.824 352.803C130.151 360.95 133.444 369.039 135.792 375.037C140.174 386.244 149.062 408.816 149.837 413.226C150.612 417.637 151.22 427.77 151.263 432.238C151.291 435.227 151.624 489.377 149.732 532.19C149.706 532.855 149.941 533.504 150.388 533.997C150.632 534.493 151.012 534.911 151.482 535.202C151.953 535.493 152.497 535.645 153.05 535.641C166.885 535.888 178.002 535.979 191.867 535.498C192.689 535.47 196.325 535.056 196.838 534.805C198.088 534.196 198.654 533.151 198.872 531.815C199.091 530.479 197.974 529.272 196.848 528.764C195.91 528.334 195 527.845 194.124 527.3C194.124 527.3 194.785 490.674 195.113 478.184C195.783 452.96 194.091 416.591 191.486 404.676C189.089 393.062 186.006 381.6 182.252 370.351C180.236 364.296 177.351 356.971 174.39 349.852C179.129 346.046 184.178 342.643 189.485 339.68C191.187 338.73 192.865 337.779 194.538 336.924C196 339.599 197.843 342.049 200.008 344.196C205.602 349.747 212.689 352.238 220.108 353.64C217.622 349.362 214.847 344.609 211.971 339.728C210.331 336.938 208.644 334.072 206.962 331.173C215.992 327.542 225.241 325.032 235.74 323.15C236.022 323.099 236.295 323.009 236.553 322.884L236.738 322.855C239.4 322.608 242.069 322.439 244.747 322.347C248.236 322.223 255.588 323.587 256.258 318.459C256.971 313.069 249.809 313.074 246.277 313.003C244.196 312.96 242.114 313.003 240.032 313.064C240.032 312.028 239.996 310.992 239.923 309.956C245.274 309.552 251.135 309.543 254.376 309.481C257.39 309.424 260.17 308.53 260.122 305.284C260.027 300.484 251.677 300.355 248.326 300.07ZM174.043 301.396C174.994 302.603 176.011 304.053 177.019 305.612C174.316 307.069 171.638 308.597 168.986 310.194C169.533 306.334 169.908 302.351 170.602 298.473C171.939 299.2 173.11 300.195 174.043 301.396Z" fill="#2DBE60"/>
<path d="M302.428 363.283C302.57 360.907 302.651 358.621 301.382 356.439C300.165 354.343 298.34 353.587 296.377 354.253C296.22 350.45 294.448 347.432 290.674 345.051C289.12 344.067 286.396 344.029 285.503 345.137L288.316 350.284C288.611 352.627 288.212 355.512 286.672 357.361C285.246 359.067 283.483 360.26 282.912 362.527C282.409 364.524 283.017 366.777 284.742 367.974C286.8 369.4 288.887 368.269 290.645 366.938C292.122 365.817 293.373 364.427 294.333 362.841C294.224 363.233 294.081 363.615 293.906 363.982C293.15 365.541 291.786 366.577 290.674 367.86C288.464 370.408 287.371 373.716 289.196 376.805C289.588 377.447 290.213 377.912 290.941 378.102C291.668 378.293 292.441 378.194 293.098 377.827C295.076 376.765 296.836 375.337 298.283 373.621C297.897 374.734 297.6 375.877 297.394 377.038C297.106 378.894 297.458 380.793 298.392 382.423C298.948 383.416 300.479 384.196 301.61 383.735C306.159 381.881 307.713 377.675 307.741 373.003C307.765 368.934 306.42 364.785 302.428 363.283Z" fill="#2DBE60"/>
<path d="M288.915 332.874C287.376 329.12 282.1 329.756 279.567 331.976C279.318 332.193 279.103 332.446 278.93 332.727C280.371 335.379 281.808 338.033 283.241 340.688C286.135 339.329 290.351 336.368 288.915 332.874Z" fill="#2DBE60"/>
<path d="M345 536H101" stroke="#1A1A1A" stroke-width="6" stroke-linecap="round" stroke-linejoin="round"/>
<path d="M301 586L101 586" stroke="#E0E0E0" stroke-width="6" stroke-linecap="round" stroke-linejoin="round"/>
<path opacity="0.4" d="M198 636L98 636" stroke="#E0E0E0" stroke-width="6" stroke-linecap="round" stroke-linejoin="round"/>
<path d="M134.724 297.77C141.083 306.444 146.511 313.516 153.022 319.443C163.117 313.003 176.872 304.709 187.58 299.352" stroke="#009534" stroke-width="6" stroke-linecap="round" stroke-linejoin="round"/>
<path d="M94.9229 304.642C101.22 316.22 111.876 329.433 116.116 333.426C126.026 342.76 133.141 348.773 144.505 356.268C148.236 358.725 155.793 361.159 160.826 360.037C167.48 358.563 174.044 352.052 174.044 352.052" stroke="#009534" stroke-width="6" stroke-linecap="round" stroke-linejoin="round"/>
</g>
<defs>
<clipPath id="clip0">
<rect width="350" height="639" fill="white"/>
</clipPath>
<clipPath id="clip1">
<rect width="350" height="427" fill="white"/>
</clipPath>
</defs>
</svg>
